/* XPM */
static char *a5cu3_1us62[] = {
/* columns rows colors chars-per-pixel */
"64 64 242 2 ",
"   c None",
".  c #7A471E",
"X  c #78532B",
"o  c #7F6339",
"O  c #363278",
"+  c #283A74",
"@  c #4A3D61",
"#  c #3A4878",
"$  c #2D4A72",
"%  c #50494D",
"&  c #74584E",
"*  c #6F6951",
"=  c #4E516E",
"-  c #63546F",
";  c #516668",
":  c #6D7264",
">  c #693C1A",
",  c #8B4D1E",
"<  c #84481C",
"1  c #924D1C",
"2  c #8E511E",
"3  c #96551F",
"4  c #8D5322",
"5  c #875625",
"6  c #945521",
"7  c #955B24",
"8  c #9B5C22",
"9  c #9B5F28",
"0  c #83552D",
"q  c #A75D22",
"w  c #8B642C",
"e  c #9C6325",
"r  c #97672A",
"t  c #896535",
"y  c #956B32",
"u  c #9D7B37",
"i  c #A36424",
"p  c #A46B26",
"a  c #AA6B26",
"s  c #A46C2A",
"d  c #AA6D29",
"f  c #A26728",
"g  c #B46C27",
"h  c #A6722B",
"j  c #AC732B",
"k  c #AC772B",
"l  c #B2752B",
"z  c #B47B2D",
"x  c #BB7C2D",
"c  c #B97529",
"v  c #A67935",
"b  c #B27A30",
"n  c #A26D31",
"m  c #C07A2C",
"M  c #8B7958",
"N  c #8D6F48",
"B  c #A37C43",
"V  c #80696A",
"C  c #788C70",
"Z  c #99813A",
"A  c #BC832E",
"S  c #B7842E",
"D  c #AA8238",
"F  c #BD8431",
"G  c #BD8C33",
"H  c #B68837",
"J  c #BA9539",
"K  c #C3832F",
"L  c #C48C33",
"P  c #C78B32",
"I  c #C39334",
"U  c #CB9334",
"Y  c #CD9C3A",
"T  c #C99837",
"R  c #D49E39",
"E  c #D49A37",
"W  c #CCA43C",
"Q  c #C6A53E",
"!  c #D5A33B",
"~  c #D9A53C",
"^  c #DBAC3C",
"/  c #D5AA3C",
"(  c #DAB23E",
")  c #E1B53F",
"_  c #E0AA3C",
"`  c #958251",
"'  c #AE944D",
"]  c #B7A454",
"[  c #89926D",
"{  c #C69D40",
"}  c #CAA847",
"|  c #D5A943",
" . c #DDBA41",
".. c #DAB544",
"X. c #D1B44D",
"o. c #E5BB42",
"O. c #E7B842",
"+. c #D1BD66",
"@. c #D9C459",
"#. c #EBCB46",
"$. c #E6C648",
"%. c #EDD44B",
"&. c #F3D84B",
"*. c #E7C956",
"=. c #EAD556",
"-. c #F2D957",
";. c #F0CE49",
":. c #F8EA54",
">. c #FAF157",
",. c #E7D063",
"<. c #FDFB66",
"1. c #F2E465",
"2. c #35348B",
"3. c #393A94",
"4. c #2D3487",
"5. c #463999",
"6. c #5B349C",
"7. c #4E318F",
"8. c #67379A",
"9. c #723095",
"0. c #4D3DA9",
"q. c #364A8A",
"w. c #2B5683",
"e. c #384697",
"r. c #2E5B95",
"t. c #355591",
"y. c #37678A",
"u. c #366997",
"i. c #3B779A",
"p. c #2F6098",
"a. c #3759A7",
"s. c #3648A6",
"d. c #3A6AA4",
"f. c #3D78A3",
"g. c #47469A",
"h. c #4F5295",
"j. c #6C419F",
"k. c #456A9A",
"l. c #4E7496",
"z. c #564AA4",
"x. c #4856A7",
"c. c #5655A5",
"v. c #4D4BA6",
"b. c #6848A4",
"n. c #6658A8",
"m. c #7254AC",
"M. c #5766AA",
"N. c #4678A6",
"B. c #5768B6",
"V. c #5676B6",
"C. c #4E70AC",
"Z. c #6766AC",
"A. c #7869B5",
"S. c #6777B7",
"D. c #7879BA",
"F. c #7266B0",
"G. c #796A8A",
"H. c #607EC0",
"J. c #8A50A6",
"K. c #9668B3",
"L. c #8E70B5",
"P. c #A873B5",
"I. c #9253A4",
"U. c #9F7FC3",
"Y. c #3F829B",
"T. c #44869A",
"R. c #4B919A",
"E. c #569598",
"W. c #4F828D",
"Q. c #6F9A8F",
"!. c #448BA4",
"~. c #4485A6",
"^. c #5B85AA",
"/. c #4D9BAC",
"(. c #4A95A6",
"). c #5394B2",
"_. c #6585B6",
"`. c #6797B6",
"'. c #7087B5",
"]. c #53A2AE",
"[. c #56A7B6",
"{. c #4FA1B1",
"}. c #68A8B7",
"|. c #6EABB8",
" X c #7CAC9F",
".X c #7596C6",
"XX c #6D8EC3",
"oX c #79A4C6",
"OX c #6DB2C6",
"+X c #5AAEC4",
"@X c #8C8ABC",
"#X c #B585BD",
"$X c #AD8ABF",
"%X c #8AA5BE",
"&X c #8DA587",
"*X c #FBF993",
"=X c #EEE396",
"-X c #8A88C1",
";X c #8398CA",
":X c #9598C8",
">X c #9989C4",
",X c #A698CA",
"<X c #B79ACB",
"1X c #AC94CA",
"2X c #8BA8C7",
"3X c #9BA6CA",
"4X c #89AAD4",
"5X c #96B0D3",
"6X c #A9AAD2",
"7X c #BAAAD2",
"8X c #A7B6DA",
"9X c #B8B7D9",
"0X c #A9A7CE",
"qX c #A7BFE0",
"wX c #C293C4",
"eX c #C4A3CD",
"rX c #C7ACD2",
"tX c #C6BAD9",
"yX c #D5BAD9",
"uX c #D1AFD3",
"iX c #90C8DA",
"pX c #A7C8D7",
"aX c #B9C4DC",
"sX c #AAD5DC",
"dX c #9AC2E1",
"fX c #B9C9E3",
"gX c #ADCEE6",
"hX c #DBC3DD",
"jX c #CCC4DE",
"kX c #DBCBE3",
"lX c #C9D8E9",
"zX c #D8D8E9",
"xX c #CCCCE3",
"cX c #E4D9EA",
"vX c #E2CFE4",
"bX c #D7E5F0",
"nX c #E7E4EF",
"mX c #E8EAF3",
"MX c #F3EDF5",
"NX c #FCFCFD",
"BX c #F6F6FA",
"VX c #E6F1F5",
/* pixels */
"                                                                                                                                ",
"                                                                                                                                ",
"                                                                                                                                ",
"                                                                                                                                ",
"                                                                                                                                ",
"                                                            R.R.                                                                ",
"                                                    R.R.(.(././././.(.(.R.                                                      ",
"                                              (.{.{./.(.!.!.!.!.!.(.(././././.E.                                                ",
"                                          (.].[.{./.(.!.Y.i.i.i.i.Y.Y.T.(.[.|.OX}.R.                                            ",
"                                      E.{.[.{./.(.!.~.~.i.u.u.u.u.u.u.T.).}.|.pXpX].R.                                          ",
"                            w y v N E.[.[.{./.!.!.i.i.N.u.p.p.p.r.r.u.N.^.`.|.pXpX|.~.~.l.                                      ",
"                        w r s s b [ [.+X[./.(.~.i.i.u.k.k.r.d.a.r.p.k.N.^.`.|.2X5XoXV.V.^.[ D D v y                             ",
"                      r h d 7 5 [ }.iXsX[.!.~.f.d.p.r.p._.S.V.a.s.a.C.C._.`.oX2X8X2XB.B.^.&X` h l j r                           ",
"                      r f 3 , * [.+XiXsX}.!.f.d.d.d.t.q.'.lX4Xa.s.x.B.B.S.'.2XpXlXaX'.C.~.E.[ o 8 p d w                         ",
"                    5 7 8 , t E.[.+XOX.X).`.`.N.`.8XM.3.z.6XgXB.0.z.n.F.D.3XaXbXBXmXpX|./.Y.Q.C 0 , e 5                         ",
"                    7 , i s [ }.[.[.).~.f.N.oX4X2X9XA.5.7.Z.gX;Xn.m.m.A.L.0XxXmXNXNXVXsX`.i.T.Q.N 6 5 w v                       ",
"                  X , , a B  X]././.~.f.f.^.`.5XXXc.z.6.6.b.4X5XXXA.L.<X>X>X9XbXBXNXNXbX%XN.i.W.[ y 8 7 j y                     ",
"                X e 8 8 p [ }.(.!.~.~.f.N.5X5XoX;Xz.6.6.8.j.>X8X4X6X7XtX6X8XfXfXzXMXNXmX5Xl.y.y.C N e 4 p s                     ",
"                7 l 8 6 t Q./.~.f.f.f.d.d.V.S.H.;XA.b.8.J.P.I.K.:X8X9X6XaXfX9X,X7XtXmXzX%Xk.w.w.l.: 4 , e z r                   ",
"                f l 8 8 o Q.~.i.u.V._.d.C.B.S.XX4X8X:XL.K.P.P.K.1XfXlXfXfX9X<X1X,X@X:X3Xl.w.$ $ y.: 5 < 2 A s                   ",
"                p j 6 a t l.i.u.p.V.oX.X.X4X5X8XgXlXlX9X,X<XwX#XrXzXVXzXjXrX7XtX,Xm.z.c.q.q.t.$ ; * 7 2 8 x s                   ",
"                e j e z D = i.k.C.S..XoX5XdXdXgXgXbXVXlXzXcXvXyXcXVXVXzXtXeXrX7XK.m.m.n.M.3X%Xy.; o h i a j e                   ",
"                5 p j G } * N._._._..X4X5X4X3X8XqXfXlXmXmXzXkXvXcXVXbXzXyXeX<X#XJ.j.b.n.Z.3X5X^.; t z 6 i 8                     ",
"                5 4 8 H ,.M h.V._.XX.X5XaX,X0X,X>X,X9XnXmXnXnXMXMXmXnXcXhXwX#XK.9.8.8.z.h.k.k.k.% v S . , ,                     ",
"                  4 < k ,.' = x.M.S.;X-X,X,XkX<XK.K.7XtXkXMXBXNXNXBXcXkXhXwXP.I.9.9.6.7.3.q.q.# % D b . . <                     ",
"                  . , d *.] ; t.x.M.'.S.Z.A.U.K.I.K.uXrXhXMXNXNXNXBXcXyXuXwX#XK.A.b.6.7.2.4.q.$ X v j , 7 7                     ",
"                  4 e e | J * h.e.g.M.B.c.m.m.J.K.P.yXyXhXMXNXNXNXBXnXhXhXrX1X@X2X;XZ.5.2.4.+ & r s h 4 4                       ",
"                  f h r l z } : q.e.x.V.V.S.D.L.-X>XtXvXyXvXBXNXNXMXkXhXvXrXL.L.:X;X.Xx.2.+ % ' F 7 e p 7                       ",
"                  7 z H w r | ' # 3.e.x.B.XXXX.X;X@X,XzXrXrXcXnXmXvXeXuXeXP.J.m.,XA.M.M.e.# N E e 0 D F 4                       ",
"                    h @.] t s J : q.3.3.v.M.S.XXD.A.A.,X9X7XtX9XjXyXeXeX$XJ.9.9.j.n.g.3.2.= n c 7 Z } l 8 <                     ",
"                    . { ,.H j I M q.e.3.c.n.z.F.D.j.8.m.-X3X6X6X7XtXjX7X@XF.b.8.6.n.g.2.O & Y I k ..I 3 7 ,                     ",
"                    > . } | L ..X.: # 2.5.g.5.n.F.b.b.c.Z.S.'.@X@X6X9X9X,XD.Z.z.5.3.2.O % ] -.I z F 8 1 2 7                     ",
"                  . < . 5 H F | 1.@.` - O 2.3.c.A.n.n.c.c.c.c.c.Z.:X:X3X0XD.c.g.3.O @ & ' 1...a d r 6 6 4 b                     ",
"                  4 , 2 5 o 8 x $.1.=.} M @ 2.g.c.5.5.v.h.- M M V G.Z.Z.Z.g.g.g.# & H Y ;.$.z j y   6 8 4 x J                   ",
"                  8 2 2 6   t d G ..=.o.%.] - O 7.2.3.e.- +.=X=X=X' h.5.5.3.g.= * / ! Y ..L p v   7 , , 8 F J                   ",
"                  f 8 < < 0   N G | ! L ..$.] & N & = g.V 1.*X*X*X+.- 7.- & & t I I w j ^ ! h     p 3 < i L                     ",
"                  s j 7 8 s ` C D @.*.' D ~ ~ L U U I ` B %.<.<.<.=.N v Q R K L ! S r Q $.Y   s f l z j l L                     ",
"                  r S z e S } [ M J } { p K E E m m P U K $.>.<.<.*.l I / _ $.:.&.R ! ..I H Y L i G ! F F G                     ",
"                    y S f f | +.' Z v b p i x K c q i l K ^ &.>.<.$.G j g ^ >.-.^ L G G X.,.*.| } $.T A L                       ",
"                      r 7 , l ..X.W Q J Y Q Q W x q i U U ! o.:.>.o.^ / d L U c p y b ..1.*.o.-.-.W h D                         ",
"                      u b 3 p T | K P ~ :.<.<.:./ g S ^ L E ^ #.&.~ R o.z 3 q q i S F E E K o.o.U D                             ",
"                        J k S ! | ..E E _ ^ ~ ~ U l U / l U U ~ o.L x ) I 3 q c K W | X.Y g m P W                               ",
"                          u J ) O.-.1.,...m m O.! x Y T e A x x K a i R L 1 1 S Y O.*.*.! E ! ..                                ",
"                              ....$.;.=.O.c g m c a K S 8 z a a l i a I G 8 1 i x R ..R Y } }                                   ",
"                                      | ~ P K z d z ( $.z i j a p 3 A o.$.T l A T {                                             ",
"                                          | | { k A / ( A e e e e e L P T I H                                                   ",
"                                                  d L  .$.( ( (  .#.&.%. .G                                                     ",
"                                                  e / :.:.%.#.#.%.#.&.>.:.W                                                     ",
"                                                  h $.:.>.#.$.#.#.) $.:.:./                                                     ",
"                                                  S %.$. .o.;.&.&.#.^ W $.#.                                                    ",
"                                                  G #.) o.o.) O.O.O.o.( ( &.(                                                   ",
"                                                  W #.) o._ o.#.#.o.O.#.( &. .                                                  ",
"                                                . W #.^ ) E %.J D $.~ $.o.;. .                                                  ",
"                                                  G $.! Y K %.J Z  .P R ( $.W                                                   ",
"                                                  e ^ ^ P P $.X.Q $.P U ) ..                                                    ",
"                                                    F ^ E P W $.#./ U R ^                                                       ",
"                                                    X G ~ E U Y ! U E E I                                                       ",
"                                                        G ! ~ ! R R ! J                                                         ",
"                                                                                                                                ",
"                                                                                                                                ",
"                                                                                                                                ",
"                                                                                                                                ",
"                                                                                                                                ",
"                                                                                                                                "
};
