/* XPM */
static char *asfr6_hc1ut[] = {
/* columns rows colors chars-per-pixel */
"64 64 236 2 ",
"   c #724827",
".  c #724827",
"X  c #3A161D",
"o  c #2D111A",
"O  c #361520",
"+  c #3B1622",
"@  c #3E1824",
"#  c #3E1D29",
"$  c #3B2436",
"%  c #42181D",
"&  c #431C25",
"*  c #461D28",
"=  c #4C222A",
"-  c #4A2329",
";  c #52252D",
":  c #55292D",
">  c #542631",
",  c #5A2B34",
"<  c #592C34",
"1  c #5C3234",
"2  c #5D302F",
"3  c #662D37",
"4  c #633435",
"5  c #64343A",
"6  c #6B3D3C",
"7  c #6C353A",
"8  c #753A3A",
"9  c #762F35",
"0  c #74443D",
"q  c #372E47",
"w  c #6D3A44",
"e  c #693945",
"r  c #733D46",
"t  c #743E49",
"y  c #7C3C48",
"u  c #4A2E40",
"i  c #3C4767",
"p  c #3E5672",
"a  c #554756",
"s  c #7D4744",
"d  c #7E4946",
"f  c #7C434B",
"g  c #774347",
"h  c #6D4E55",
"j  c #445A73",
"k  c #555769",
"l  c #4A677A",
"z  c #556A77",
"x  c #6D7072",
"c  c #7C5A63",
"v  c #82373F",
"b  c #83463E",
"n  c #853D49",
"m  c #834B45",
"M  c #82464D",
"N  c #844A4E",
"B  c #894C4D",
"V  c #8C4B46",
"C  c #8C514B",
"Z  c #895247",
"A  c #93554A",
"S  c #955B4C",
"D  c #9B5C4B",
"F  c #955448",
"G  c #854B51",
"H  c #8A4E51",
"J  c #8B4656",
"K  c #954A5B",
"L  c #8E5252",
"P  c #895C52",
"I  c #925554",
"U  c #945954",
"Y  c #9A5E53",
"T  c #9B5C5B",
"R  c #955858",
"E  c #A35C4C",
"W  c #A45C51",
"Q  c #9D624E",
"!  c #9A654D",
"~  c #9D6252",
"^  c #9E625A",
"/  c #966655",
"(  c #A3644E",
")  c #A66A4D",
"_  c #A96D4F",
"`  c #A8634D",
"'  c #A26554",
"]  c #A46A53",
"[  c #AB6C52",
"{  c #A2655B",
"}  c #A5695B",
"|  c #AA6D5E",
" . c #AA6554",
".. c #B56A56",
"X. c #AD7254",
"o. c #AC725D",
"O. c #A87759",
"+. c #B37455",
"@. c #B3745B",
"#. c #B57C5B",
"$. c #BB7C5B",
"%. c #B97758",
"&. c #984E65",
"*. c #9C5368",
"=. c #865462",
"-. c #A6576B",
";. c #B45A6B",
":. c #B65E70",
">. c #AE5C70",
",. c #8F736A",
"<. c #AB6E61",
"1. c #A56664",
"2. c #AE7262",
"3. c #B37562",
"4. c #B57B63",
"5. c #B97C65",
"6. c #B87C68",
"7. c #BC6172",
"8. c #B27073",
"9. c #C7765A",
"0. c #C35D6C",
"q. c #C77C63",
"w. c #C66676",
"e. c #C96F75",
"r. c #BC825C",
"t. c #B8845C",
"y. c #928A79",
"u. c #BC8365",
"i. c #BE8962",
"p. c #BB846B",
"a. c #BD896C",
"s. c #B58463",
"d. c #BE9267",
"f. c #B08F74",
"g. c #C4875E",
"h. c #C38463",
"j. c #C38C64",
"k. c #CA8D63",
"l. c #C28C6C",
"z. c #C78668",
"x. c #D48B68",
"c. c #CC9263",
"v. c #C5936B",
"b. c #CB9C6B",
"n. c #C89669",
"m. c #D19465",
"M. c #D39D6C",
"N. c #D7966A",
"B. c #C68972",
"V. c #C59372",
"C. c #CC9C73",
"Z. c #C89675",
"A. c #D79972",
"S. c #D68973",
"D. c #CEA36C",
"F. c #D2A46D",
"G. c #D5A96E",
"H. c #DBA86E",
"J. c #CEA272",
"K. c #CDA177",
"L. c #D2A472",
"P. c #DBA472",
"I. c #D5AB73",
"U. c #DAAC73",
"Y. c #D4AA79",
"T. c #D8A97B",
"R. c #DBB274",
"E. c #DCB47B",
"W. c #DDB97B",
"Q. c #D8B478",
"!. c #E2AC76",
"~. c #E2BD7C",
"^. c #E3B779",
"/. c #DEC07C",
"(. c #E5C27F",
"). c #4E7588",
"_. c #557A88",
"`. c #4B6F84",
"'. c #657C86",
"]. c #867D85",
"[. c #CF748B",
"{. c #59838B",
"}. c #568492",
"|. c #5A8A95",
" X c #588A96",
".X c #5C929B",
"XX c #6A9597",
"oX c #709293",
"OX c #7D9EA0",
"+X c #77A8A7",
"@X c #71A9A9",
"#X c #929685",
"$X c #A6AE8E",
"%X c #87B6B5",
"&X c #95BBB9",
"*X c #87ACAA",
"=X c #87A393",
"-X c #D68E8A",
";X c #DEB982",
":X c #D9A98F",
">X c #E3BC83",
",X c #E6BC86",
"<X c #E9BD97",
"1X c #DE9DAD",
"2X c #E1A6B5",
"3X c #89C0BE",
"4X c #D6C88C",
"5X c #E4C383",
"6X c #E5CA84",
"7X c #EACC8C",
"8X c #E7C787",
"9X c #EBD28A",
"0X c #EDDB8D",
"qX c #E8D489",
"wX c #F3DB8D",
"eX c #ECD391",
"rX c #EDD897",
"tX c #F1DD95",
"yX c #E5CA92",
"uX c #F3E395",
"iX c #F3E49B",
"pX c #F6EB9A",
"aX c #F3E695",
"sX c #F6EBA3",
"dX c #FAF3A4",
"fX c #FBF5AA",
"gX c #FDFBAD",
"hX c #FDF9A4",
"jX c #FEFCB2",
"kX c #FCF7B1",
"lX c #99C7C5",
"zX c #95CBC8",
"xX c #A4CBC9",
"cX c #ABD6D4",
"vX c #B2DCDC",
"bX c #A8D1CE",
/* pixels */
"                                                                                                                                ",
"                                                                                          sXsXiXrXeX5X;XY.                      ",
"                          1X-X!.8X8X5XE.G.                                          2X1X:XiXdXpXrX7XE.I.J.b.v.                  ",
"                      8X-X[.e.!.5XL.i.#.#.#.t.                                    1X1X-Xw.T.dXuX;Xn.#.X.X.#.s.i.                ",
"                    0X9XS.B.P.U.t._ ) ) ) ) ) X.                                sX:X[.w.e.>XuXI.#.[ ( ( ( ( ( X.#.              ",
"                  H.!.U.M.M.F.t._ ) ) ) ( ( ( ( Q     vXvXvXcXbXxX%X'.          fX!.S.A.8XuXI.+.[ ( ( ( Q Q Q D ' ]             ",
"                  A.A.x.q.%.+.[ _ ) ( ( Q S m 8 ,.xXvXvXvXcXcXbX%X'.h J ;.;.B.pXhXaXwXuXpX5X$.[  .( Q D D D S S S S             ",
"                  sXpXrX5XL.+.` ) ( ( D m 7 3 c xXvXvXcXcXbXxX%X_.h J -.;.0.A.wXwXwXwX9X,Xx.%... .( D D S S F F S S             ",
"                fXgXgXdXpX8Xh.` ` ( F 8 3 3 c lXvXvXcXbXxXxX&X_.h n K -.;.0.e.tXdXdXdXpX7Xh..... .` E D D F A A A D             ",
"                jXjXgXfXuXU.k...W F 8 3 7 f *XcXcXbXxXxXlX&XoXk y K -.>.:.0.-XkXjXjXjXgXtXx.9... .E E S F A A A A ~ ~           ",
"              gXjXjXgXfX6XM.k. .V 8 3 7 y ].zXxXxXlXlX&X&XOXz t J -.>.:.7.w.rXjXjXjXjXdX5XN.9... .E D F F A A C D ' ~           ",
"              jXjXjXgXuXU.m.+.8 9 3 7 y =.%XzXzXlXlX&X%X*X_.h n &.-.:.7.w.-XfXjXjXjXgXuX!.m.q...E E D F A A A A Q ~ Q           ",
"            jXjXjXjXdX(.M.g.b 9 7 7 n J ].3XzXlX&X%X%X*XoXk t K -.>.7.w.w.<XjXjXjXjXfX9XN.x.9. .D b 8 0 V A A D ' ~ Q !         ",
"            jXjXjXjXuXH.m.E 9 8 y n J &.OX+X%X%X%X*X+X+X_.a n &.-.>.:.:.e.sXjXjXjXjXfX~.N.k.%.8 : X . X : m C ~ ' ~ Q Q         ",
"          fXgXjXjXfX~.M.m.  9 n M J K ,.+X@X@X+X+X+XOXXXl g J *.-.-.>.>.-XfXjXjXjXjXpX!.x.x.D % . . . . . 4 m S ' ~ ~ ~         ",
"          gXgXjXgXuXH.m.    v n J K 1.#X@X@XoXoXXXXXXX{.k t &.*.-.-.-.>.:XjXjXjXjXfXeXN.x.q.7 X X . . . . = s m ~ ~ ~ ~         ",
"          gXfXgXgX8Xm.k.    n J T p.L.=XXXoXf.y.|.|.{.l h L &.*.-.-.-.>.yXjXjXjXkXfX,Xk.h...= % X . . . X @ 8 m S ~ ~ ~ ~       ",
"        dX7XU.dXdXU.k.        j.L.U.K.oXXX$XP.y._._._.l P j.a.-.*.-.-.>.rXtX,XsXfXsXT.q.$.F % % X X X X X O 4 m C ~ ~ ~ Y       ",
"        dXM.g.pXuXb.g.      R.!.U.b.f.$X4XqX~.f._.l l l / M.R.C.1.*.*.8.rXn.9.T.sXrXb.$.%.8 X X X X X X @ + : d m Y ~ Y Y       ",
"        dXP.M.dX8Xj.$.    H.R.F.j.Z.yXiX0X0XtXeX4X#Xx k U M.U.U.Z.1.*.8.yX%...A.iXyXl.@.| 2 . X X X X + @ @ - s m Y Y Y Y       ",
"        hXuXuXpXE.r.#.  F.U.b.v.5XuX0X0XuX0X6X5X6X9XQ./ g } L.P.l.1.&.a.eXq...T.rX;Xu.@.] = . X X X + @ @ @ & 0 m S Y Y ~       ",
"      pXdXdXdXpXL.$.    F.R.v.5XqX0XpXdXdXdXpX0X/.qXI.t.C G M.L.s.T &.Z.rX,X;XeXeXQ.4.@.~ * . X X + @ @ @ @ @ 6 m S ~ Y ~       ",
"      pXdXpXaX0Xn.#.    D.G.i.6XqXpXuXqX6XuXpXuX6XqXD.#.Z N M.F.4.R &.Z.eXeXeX7X7XL.@.| Y & . X X + + + + + @ 5 m U ~ ' {       ",
"      aXpXpXuX9XR.F.I.Q.R.R.D.6XqXuX/.d.X.J.iXtX6XqXn.t./ / L.M.4.R *.K.7X7X7X8X5XC.@.@.Y @ . . O & = 1 6 d P ^ ^ { | o.o.o.    ",
"      0X0X0XqX6X~.~.W.W.~.(.6X6X6X9XD._ F O.eXeX6X8Xn.D.>X>X>X>X;XT.;X5X7X7X8X,X>XZ.4.4.~ 1 6 d / | 3.6.p.6.4.3.2.2.o.| | ^     ",
"      R.W.W.R.R.G.I.R.R.W.E.(.(.6X7XD.! V t.0X9X5X5Xj.I.>X5X>X>X>X>X5X5X5X5X5X,X>XC.z.u.s.4.6.p.5.6.5.4.3.2.| } ^ Y U L C C     ",
"      U.I.F.F.b.b.b.b.b.n.I.~.~.(.9XI.! Z Q.eX8X~.W.L.W.W.W.W.W.E.E.E.>X>X>X>X;XE.v.u.u.6.4.3.3.| } { Y U I I L L I U U / ^     ",
"      ~.(.(.5X5X5X>X~.~.U.k.M.E.W.7XJ.Z 0 I.9X5XW.W.L.I.I.L.b.b.b.C.C.J.L.L.L.C.v.o.} { { ~ Y U I I U U Y ^ { } } { ^ ^ / Y     ",
"      U.U.R.R.R.E.E.~.~.~.U.F.R.R.8Xb.m 8 d.8XW.Q.Q.h.q.z.M.Y.L.L.C.C.C.V.V.v.v.p.{ ^ ^ ^ ^ { } } <.<.<.1.} { { ^ ^ Y U U U     ",
"      F.G.G.G.G.G.G.I.R.E.E.E.I.L.5Xv.b 7 s.8XQ.I.I.t.h.L.~.>X>X>X>X>X>X>X>X;X;XT.V.a.s.3.2.<.} } { { { ^ T Y U U U U U U U     ",
"      n.b.b.b.b.n.n.b.D.G.I.R.I.D.~.I.] Z s.>XI.L.L.t.b.R.U.U.I.I.I.I.Y.Y.Y.I.Y.L.s.o.| } { { { Y U C s 6 1 ; 4 m I Y U U U     ",
"      F.G.I.G.F.r.+.    ] X.t.F.n.R.W.W.Q.E.E.L.b.L.$.j.d.v.b.b.C.b.C.C.J.J.C.C.Z.3.{ { { A g 5 , - @ . . o o : s L Y U U U     ",
"      F.F.k.b.I.i.X.    A A ~ b.j.D.F.L.L.I.U.L.n.L.#.o.6 0 ~ ~ / 0 6 / J.C.C.C.Z.4.} } } g X . . . . . . . o : s L U U U U     ",
"      F.b...h.L.j.[     S S D n.j.j.r.r.r.i.j.i.i.J.t.o.4 4 A A m - & g J.K.K.K.C.p.} } } s X O O O . . . . o , s L U U U       ",
"        F.%.$.L.j.[     S Q S ] O.s.d.v.n.n.n.n.b.L.t.! : 4 S S m = * 6 C.l.3.B.C.p.} } { s O O O O O . . . . < s L U U U       ",
"        F.n.n.D.j.[ (     ] Q m 4 2 a x s.k.s.,.y.,.g - & 1 S S m = * 4 V.o.W o.Z.p.} { { m + O O O O O O O O < s L U I U       ",
"        b.b.b.b.j.X.]     ] ] ] ! A h l ,.k.c p j i u : , 6 Y Y m = * < a.3.D  .V.a.} { { Z @ O O O O O O O O < s L R I U       ",
"        b.b.b.b.j.+.[     ] ] ] ] ] ,.{.x a.z ).).j h S S Y ~ ~ m = * ; s.V.o.5.Z.a.} { { C & O O O O O O O O 1 s L I I U       ",
"        n.n.n.b.n.@.[             Q / |.{.x _.}.}.l h ] ] ] ] ~ m ; * = O.Z.V.V.V.a.} { { U * + + + @ @ @ @ O 4 s L I I R       ",
"        M.n.n.n.n.$.h.M.              .X.X X X X}.`.a ~ ~ ~ ~ ~ d - * = / V.v.V.l.a.| { { Y = @ @ @ @ @ @ @ + 4 d I R T ^       ",
"      P.!.P.P.P.P.P.P.m.              .X.X.X X X}.).i               > ; P V.v.l.l.a.| { { T , @ @ @ @ @ @ @ = N I ^ 1.^ I G     ",
"      m.N.M.P.P.P.P.k.+._             .X.X.X X X}.).i   = ;           > P l.l.l.a.a.<.{ ^ ^ 4 @ @ @ @ @ @ @ 4 T 1.T L G f G     ",
"        m.m.m.m.m.c.+.[ [               .X X X}.}.).i   ;             <   l.a.a.a.p.2.{ ^ { 6 @ @ @ @ @ @ @ 5 R I H G M f f     ",
"        c.c.c.c.c.k.+.[ [                X X}._.).).i $               3   a.a.a.p.p.2.{ ^ { B > @ @ @ @ @ @ w T I G M f f       ",
"        c.c.c.c.c.k.%._ _               }.}._.oX#X).p $             5 3   l.a.a.p.p.3.{ } <.<.L * @ @ @ @ @ r T I G f f f       ",
"        k.k.k.k.k.k.$._ _ )             _.).'.C.^.y.j q @   ,     3 3 7 4.C.Z.Z.V.B.p.3.<.{ T H = @ @ @ @ @ r T I G f f f       ",
"          g.g.g.g.g.r._ _ _             ).).f.A.P.Y.x q & ; > , , < < r 6.h.z.l.l.p.6.1.T I L H > + @ @ & < H T I f f f f       ",
"          g.g.g.g.g.r.X.[ #.j.j.j.        x S.S.N.P.f.a # ; > , < , < 7 2.5.5.5.4.3.2.T L H H H , O @ * g T 1.T H f f g g       ",
"          r.r.r.r.r.r.+.t.j.j.j.j.j.i.5.h ,.x.S.x.x.C.,.# = ; , , , , , { 5.3.3.4.3.<.T L H H H 5 , r r G M H G f f g t g       ",
"            %.%.%.%.$.$.r.h.j.j.j.i.#.[ Z 5.x.x.x.h.z.p.1 * ; ; > , , , U 3.3.3.3.<.} T L H H H H T ^ T T L f f f t r w         ",
"            X.X.+.+.+.+.+.+.#.%.$.@. .@.j.h.z.n.v.z.@.4.m - 6 Z d g w 5 C 3.3.2.<.} } ^ H H B B I T T I H H g f t r w w         ",
"            ( ( ( ) [ [ [ X.X.+.[ [ ] l.b.v.v.l.l.p.4.3.o./ 3.p.p.6.4.2.o.o.| | | } { ^ L H B N H U H G M G g t r w e e         ",
"              S S D Q ( ( ( ] [ ] ( ' o.o.@.4.s.p.l.v.V.V.s.6.6.6.6.4.6.4.| | | } } { ^ L B B N G G M M f G t w w e e           ",
"                F F F F S D D Q Q D D ] ] ] ] ] ] } o.o.4.| | o.3.3.3.3.2.} } } } { { ^ L B N N N M f f g f r w e e             ",
"                    V V V F F F F F A Q ~ ~ Y Y Y ~ ~ ' ] ' ' ' } } } } { { { { { { { T I N N N M f f t t f w e                 ",
"                          V V V V V V V   S S A A A S Y Y ~ ~ ' ' ' ' { { { { { { { T T I N N M f f t r w                       ",
"                                                    C C A S U U U Y Y Y Y Y Y Y T T T T L N M f f r r w w                       ",
"                                                          C A A A A U U U U U U U U U I L M f f r r w w                         ",
"                                                            V B B B C C C L L L I L L H N f f r r r w                           ",
"                                                                  B V V V B B B B B B N M f r r r                               ",
"                                                                              M M M M f f t r                                   ",
"                                                                                                                                ",
"                                                                                                                                ",
"                                                                                                                                "
};
