/* XPM */
static char *aufoh_m5zuv[] = {
/* columns rows colors chars-per-pixel */
"64 64 36 1 ",
"  c #5F3616",
". c #5D361A",
"X c #5F381B",
"o c #613818",
"O c #643B1A",
"+ c #653C1B",
"@ c #623A1C",
"# c #633C1C",
"$ c #663C1C",
"% c #683F1E",
"& c #643C20",
"* c #673F23",
"= c #69401F",
"- c #674022",
"; c #6B4221",
": c #6D4322",
"> c #6E4423",
", c #684024",
"< c #6A4325",
"1 c #6C4324",
"2 c #6B4426",
"3 c #6F4524",
"4 c #6F4826",
"5 c #6E4628",
"6 c #6F482B",
"7 c #714727",
"8 c #724827",
"9 c #744A27",
"0 c #734928",
"q c #724B2A",
"w c #744A29",
"e c #764C2B",
"r c #724A2C",
"t c #774D2C",
"y c #794F2D",
"u c #7A502E",
/* pixels */
"00000000yu80w00wwe770:;788087078088w87ww8tu00000wew778;;788ww800",
"880w88w0ty800888ww787==7088778800778078w8ey000878w0777==7w877800",
"87ww8008808883;;388w07708ww877000888w0887800087:=3880w730w000888",
"77w03>7088077;oo%3800w088ww087888000w7>3008007:+o%700ww0888w0777",
"8888>$=708073%oo%700000ww0003;>787370>$$300083;Oo%7w00ww880003=:",
"88887;:808007:%%>800008888ww7:38073803;:700w07>=$:7w08ww738087>7",
"8888808000www8338880w87:%30w8880w8808880080ww077>7008708;%>8000w",
"00000ww00ww00w00w880083;$:80ww0ww00w00w08800000080087787=$:800ww",
"000000080w08800008000873:7w00wwwwwww0087780000000ww088803:708088",
"000000w80w80888000000000800888000ww00878800w08800w00000w88000w80",
"w87800w0008ww0888000000000000880ww088888000ww080w000000088000w00",
"03:3800000088888000000000000000ww87>78880000w0770000000000000000",
"83:3780ww087780000000000000000ww073:3888000000008000000000000000",
"08780880w07370ww8000000000000000w0088888000877ww0000000000000000",
"00080880w7:%;30w000000000000000000000888008:%;708000000000000000",
"7808887883%oO:8w00000000000000ww08888880007%oo:88000000000000000",
"8000007883=o$>8w800000000000000000000088807=oo:00000000000000000",
"70080000007:>7w08800000000000000000000899983;:8ww000000000000000",
"7008000000088ww088000000000000053300008999ww77www000000000000006",
";7088000000www00000000000000003;$;30008999ww08000000000000000003",
"$>77800000000880w0000000000000;@ @1ww099999088000000000880000002",
"$377800000088880w0000000000000;@ #30w0w9998800www000000880000002",
":800000000000ww0800000000000003;$;8880wwww08ww000000000999000843",
"8000000000080w008800000000000004480880wwwww880880000000999990080",
"0000000000087:;38000000000000000000000wwww8708:;3000000999998000",
"0000000000003$o;8000000000000088888000wwww88w7$o;800000999999900",
"0000000000003=$:80000000000000888880000www0807=$:800000999999990",
"000000000008873880000000000008888880000wwww878877000000999989990",
"000000000000w88w0000000000000888888000wwwww08ww80000000998898888",
"000000000000w8800088000000000088888000wwwww00w080000000w98000000",
"00000000000000000999990000rrrr0000000000000000000000000w08000000",
"00000000000000000999990000rr550ww00w0000000000000000000080005555",
"000000000000000009999900w03**@;800ww000000000000000000088005<**;",
"000000000000000009999w0003*@X@$308ww00000000000000000008806<@..@",
"0000000000000000099www0005-@X@$3070000000000000000000008803;@..@",
"0000008800000000099www0000<@Xo$0w80880080000000000000008800<*@@$",
"000887>:700000000wwwww00003<;;300000807:>7000000000000088005<<<<",
"00088>$$>00000000wwwww0000006000000000>+$30000000000000880065556",
"8899w7=%300000000wwwww00000000000000807==30000000000000888066rrr",
"8899ww87700000000wwwww000000000000008008w0800000000000088460rrrr",
"999980ww000000000wwwww00w00000000000w077ee000000000000088800rrr0",
"99999000w08000000wwwww00w000000000000w870w000000000000080000r000",
"88w80w8800788000000000000000000008808008000008000000000000000000",
"80000008800000000000000000000000000w0888000w00ww0000000000000000",
"073700000ww00888000000000000000ww08778880088wwwww000000000000000",
"83:3800www08877800000000000000www83;38880088ww080000000000000000",
"07>788www8780000800000000000000ww0737880000088000000000000000000",
"0888880w87>:3800880000000000000000w008800083;:8w0000000000000000",
"800888808>=o$>8w00000000000000w008800888007=o+>00000000000000000",
"w07808780>$oO:8w800000000000000088880000007%oo;70000000000000008",
"w078007807;$=38w000000000000008887780000008:%%388000000000000088",
"788780880073770ww0000000000000087780000000w077ww0000000000000000",
">78880880000000ww00000000000088>:>70000000ww00ww8000000000000008",
"%3088800000ww000w0000000000008>$O$>8000000088808700000000000008>",
"$:00880w08888800w0000000888888:O O:8000000088000000000000000008>",
"*30000000008000w00000088888888>$o=78800000008ww0w000000000000843",
"5rr600000008ww0w0000008888888883>7000000000870w000000000r0008880",
"rrr0000000088337800000888888888wew000000000878737000000000008880",
"000rw00000003$$:8000000888888880w0880000008807%+;80000000www8888",
"w0www00000003$o;8000000088888807780000000088w7$o;800000wwww99998",
"www7800000008>;7000000000088880880000000000800>;3000000www999999",
"88989w000000000000000000wwwww0880088000000008000000000www9999989",
"999990000000000000000000wwww000880w0000000000000000000ww99999989",
"ww9990000000000000000000w0000000880w00000000000000000009999wwww9"
};
