/* XPM */
static char *adimj_cdiqr[] = {
/* columns rows colors chars-per-pixel */
"64 64 180 2 ",
"   c None",
".  c #657E79",
"X  c #9A6C68",
"o  c #8D7A73",
"O  c #9E797A",
"+  c #997A7A",
"@  c #B17070",
"#  c #D45E5E",
"$  c #DA5A5A",
"%  c #D35655",
"&  c #FF4747",
"*  c #FF4847",
"=  c #F34C4C",
"-  c #FF4B4A",
";  c #FF524C",
":  c #FF5A4B",
">  c #E45352",
",  c #EA5252",
"<  c #FF5453",
"1  c #FE5A52",
"2  c #FE5B5B",
"3  c #FE674E",
"4  c #FF6D50",
"5  c #FC665A",
"6  c #FE7556",
"7  c #C26E6C",
"8  c #DC736F",
"9  c #FF6666",
"0  c #FF6A66",
"q  c #FC6C68",
"w  c #FF7365",
"e  c #FE7C64",
"r  c #FF726A",
"t  c #FE7D6B",
"y  c #56847E",
"u  c #58847E",
"i  c #62807A",
"p  c #A78275",
"a  c #B88471",
"s  c #FE8659",
"d  c #FE985D",
"f  c #FEAC5E",
"g  c #FEA55C",
"h  c #FEB45F",
"j  c #FE8563",
"k  c #FE8C63",
"l  c #FE836B",
"z  c #FE8C6C",
"x  c #FE9462",
"c  c #FE9A64",
"v  c #FE936C",
"b  c #FF8A73",
"n  c #FE8772",
"m  c #FE9672",
"M  c #FE9B74",
"N  c #FEA261",
"B  c #FEAD60",
"V  c #FEA46D",
"C  c #FEB661",
"Z  c #FEB862",
"A  c #FEBC6B",
"S  c #FEA37A",
"D  c #FEAF7F",
"F  c #FEA074",
"G  c #FEC378",
"H  c #5A8782",
"J  c #5A8782",
"K  c #5F908E",
"L  c #5F9292",
"P  c #628782",
"I  c #60918E",
"U  c #6A938E",
"Y  c #629595",
"T  c #6F9494",
"R  c #669999",
"E  c #6C9D9D",
"W  c #639798",
"Q  c #729393",
"!  c #7A9594",
"~  c #74A3A3",
"^  c #7AA6A6",
"/  c #7EAAAA",
"(  c #00CCFF",
")  c #0DCFFF",
"_  c #0ED0FF",
"`  c #14D1FF",
"'  c #23D4FF",
"]  c #33D7FF",
"[  c #37D8FF",
"{  c #3BD9FF",
"}  c #4CDBFE",
"|  c #5BDEFE",
" . c #77DCEE",
".. c #72E3FF",
"X. c #78E3FB",
"o. c #828A8A",
"O. c #898E8E",
"+. c #928181",
"@. c #939D84",
"#. c #929E8D",
"$. c #8E9999",
"%. c #A19B96",
"&. c #94A086",
"*. c #92A18A",
"=. c #9AAA94",
"-. c #A8AE95",
";. c #B0B59E",
":. c #83ACAC",
">. c #84A5A0",
",. c #8DB5B5",
"<. c #94B6B4",
"1. c #9CBDBD",
"2. c #B8B2AA",
"3. c #C58283",
"4. c #CF9999",
"5. c #FEAD81",
"6. c #FFA082",
"7. c #FDB382",
"8. c #FEBA85",
"9. c #FFB08B",
"0. c #FEBD89",
"q. c #FFAE94",
"w. c #FFB390",
"e. c #FFBF9B",
"r. c #D3B7B7",
"t. c #FECA86",
"y. c #FEC48A",
"u. c #FECC8E",
"i. c #FEC782",
"p. c #FFC394",
"a. c #FECE90",
"s. c #FED093",
"d. c #FFD399",
"f. c #E8C3A1",
"g. c #FFD5A1",
"h. c #FFD9A6",
"j. c #FFDCAD",
"k. c #EADEBD",
"l. c #FBDCB4",
"z. c #F6DAB9",
"x. c #FEE1BA",
"c. c #F6E0BC",
"v. c #A5C3C3",
"b. c #A9C6C6",
"n. c #B1CACB",
"m. c #BBD1D1",
"M. c #92DFE7",
"N. c #9FE0E3",
"B. c #86E6FC",
"V. c #9CE8F7",
"C. c #ACE8EF",
"Z. c #B8EBEE",
"A. c #A3E9F3",
"S. c #C7CEC2",
"D. c #DDD9C6",
"F. c #C3D7D7",
"G. c #CDDEDE",
"H. c #C7DCDC",
"J. c #DDE0C6",
"K. c #D4E5D7",
"L. c #EEE3C5",
"P. c #E6E4CB",
"I. c #FEE6C6",
"U. c #E7E8D4",
"Y. c #C2EAE9",
"T. c #CBE5E3",
"R. c #D1E0E0",
"E. c #D7E9E5",
"W. c #DCF0ED",
"Q. c #C6EFF3",
"!. c #CBF0F4",
"~. c #E6E6E6",
"^. c #E8E7E7",
"/. c #E5ECEC",
"(. c #EAECEC",
"). c #E0F0E7",
"_. c #ECF2F2",
"`. c #F4F6F6",
"'. c #F8F7F7",
"]. c #FFFFFF",
/* pixels */
"                                                                                                                                ",
"                                                            & &                                                                 ",
"                                                          & & &                                                                 ",
"                                                        & & & &                                                                 ",
"                                      & & & &         & & & & &                                                                 ",
"                                    & & & & & & &     & & & - -                                                                 ",
"                                      & & & & & & & - - < 2 2 9 9 9 9 9 9 9 9 9 9 9 9                                           ",
"                                        & & & & & - 2 9 9 9 9 9 9 9 9 9 9 9 9 9 9 9 9 9 9 9 9                                   ",
"                                            & & < 9 9 9 9 9 9 9 9 9 9 9 9 9 9 9 9 9 9 9 9 9 9 9 9                               ",
"                                            & < 9 9 9 9 9 9 9 9 9 9 9 9 9 9 9 9 9 9 9 9 9 9 9 9 9 9                             ",
"                                        & & - 9 9 9 9 9 9 9 9 9 9 9 9 9 9 9 9 9 9 9 9 9 9 9 9 9 9 9 9 9                         ",
"                                    & & & - 2 9 9 9 9 9 9 9 9 9 9 9 9 9 9 9 9 9 9 9 9 9 9 9 9 9 9 9 9 9                         ",
"                                  & & & & < 9 9 9 9 9 9 9 9 9 9 9 9 9 9 9 9 9 9 9 9 9 9 9 9 9 9 9 9 9 9 9                       ",
"                                & & & & & 2 9 9 9 9 9 9 9 9 9 9 9 9 9 9 9 9 9 9 9 9 9 9 9 9 9 9 9 9 9 9 9 9                     ",
"                                & & & & - 9 9 9 9 9 9 9 9 9 9 9 9 9 9 9 9 9 9 9 9 9 9 9 9 9 9 9 9 9 9 9 9 9                     ",
"                              & & & & & < 9 9 9 9 9 9 9 9 9 9 9 9 9 9 9 9 9 9 9 9 9 9 9 9 9 9 9 9 9 9 9 9 9                     ",
"                              & & & & & < 9 9 9 9 9 9 9 9 9 9 9 9 9 9 9 9 9 9 9 9 9 9 9 9 9 9 9 9 9 9 9 9 9 9                   ",
"                            & & & & & & 2 9 9 9 9 9 9 9 9 9 9 9 9 9 9 9 9 9 9 9 9 9 9 9 9 9 9 9 9 9 9 9 9 9 9                   ",
"                            & & & & & & 2 9 9 9 9 9 9 9 9 9 9 9 9 9 9 9 9 9 9 9 9 9 9 9 9 9 9 9 9 9 9 9 9 9 9                   ",
"                            & & & & & & 2 9 9 9 9 9 9 9 9 9 9 9 9 9 9 9 9 9 9 9 9 9 9 9 9 9 9 9 9 9 9 9 9 9 9                   ",
"                            & & & & & & 2 9 9 9 9 9 9 9 9 9 9 9 9 9 9 9 9 9 9 9 9 9 9 9 9 9 9 9 9 9 9 9 9 9 9                   ",
"                          & & & & & & & 2 9 9 9 9 9 9 9 9 9 9 9 9 9 9 9 9 9 9 9 9 9 9 9 9 9 9 9 9 9 9 9 9 9 9                   ",
"                          & & & & & & & 2 9 9 9 9 9 9 9 9 9 9 9 9 9 9 9 9 9 9 9 9 9 0 w 9 9 9 9 9 9 9 9 9 9 9                   ",
"                          & & & & & & & < 9 9 9 9 9 9 9 9 9 9 9 9 9 9 9 9 9 9 9 9 9 w j 9 9 9 9 9 9 9 9 9 9 9                   ",
"                          & & & & & & & - 9 9 9 9 9 9 9 9 9 9 9 9 9 9 9 9 9 9 9 9 9 j c 9 9 9 9 9 9 9 9 9 9 9                   ",
"                          & & & & & & & - 2 9 9 9 9 9 9 9 9 9 9 9 9 9 9 9 9 9 9 9 0 N B w 9 9 9 9 9 9 9 9 9                     ",
"                          & & & & & & & & 1 0 9 9 9 9 9 9 9 9 9 9 9 9 0 q r t l v V A A V l r 0 9 9 9 9 9 9                     ",
"                          & & & & * & - 4 d x 9 9 9 e k j j z m 6.q.w.7.0.y.t.u.u.u.u.u.u.t.p.e.9.F c j 9                       ",
"                          & & & & & * 6 h Z N 0 9 9 x Z C A t.j.).V.A.P.s.a.a.a.a.a.a.a.a.l.Y.B.Z.x.t.V                         ",
"                          & & & & & : f C C N 0 9 9 k C A t.g.W.{ ( ( } k.u.a.a.a.a.a.u.g.C.` ( _ V.h.5.                        ",
"                          & & & & & 4 C C C N 0 9 9 j C G u.x.B.( ( ( ( N.s.a.a.a.a.a.u.c.} ( ( ( [ L.5.                        ",
"                          & & & & & 4 C C C c 9 9 9 j C i.u.I.| ( ( ( (  .d.u.a.a.a.a.u.L.] ( ( ( ' P.S                         ",
"                        & & & & & & ; g Z C k 9 9 9 e C t.u.I...( ( ( ( M.s.a.a.a.a.a.u.l.| ( ( ( } z.b                         ",
"                        & & & & & & & 4 f C e 9 9 9 e C t.u.h.!.' ( ( ] D.a.a.a.a.a.a.u.d.T.{ _ ] Y.p.r                         ",
"                      & & & & & & & & & 3 s 0 9 9 9 w C i.a.a.x.Q...X.K.d.u.a.a.a.a.a.a.u.g.U.T.U.g.n 9                         ",
"                      & & & & & & & & & & < 9 9 9 9 w B G s.a.a.h.x.j.s.u.a.a.a.a.a.a.a.a.a.s.s.0.n 9 9 9                       ",
"                    & & & & & & & & & & - 2 9 9 9 9 9 4 d 7.y.u.u.u.u.a.a.a.u.u.u.u.u.u.y.8.S z r 9 9 9 9                       ",
"                  & & & & & & & & & & & - 9 9 9 9 9 2 % X o p #.&.&.&.@.@.@.-.;.=.*.@.a 5 ; - - 9 9 9 9 9                       ",
"                & & & & & & & & & & & & < 9 9 9 9 9 7 i y y H Y W Y Y L L Y n.H.E Y H u X = & - 9 9 9 9 9                       ",
"                & & & & & & & & & & & & 2 9 9 9 9 9 o y u u u I R R R R R R ^ ^ R R K y . > & & 9 9 9 9 9                       ",
"                & & & & & & & & & & & & 2 9 9 9 9 q %.J u u u I R R R R R R R ~ ~ R K U 2.2 & &   9 9 9                         ",
"              & & & & & & & & & & & & & - 2 9 9 2 l l.S.>.P J W R R R R R R E H.m.R <.D.j.m * &                                 ",
"                & & & & & & & & & & & & & & - - ; 7.a.g.z.8 O R R R R R R R R :./ ! f.d.u.y.z 1                                 ",
"                & & & & & & & & & & & & & & & ; m u.a.u.m * $ T R R R R R R R Y W O e u.a.a.a.0.                                ",
"                & & & & & & & & & & & & & & ; M a.a.a.y.5 & = O.E E E E ~ ~ ^ :.,.3.- z u.a.a.a.a.                              ",
"                  & & & & & & & & & & & & - m a.a.a.a.m - & - r.R.G.G.G.R.R.R.G.H.4.& - m a.a.a.a.a.                            ",
"                    & & & & & & & & & & & e u.a.a.a.8.1 & & , $.:.:.:.:./ ^ ~ E E Q # & ; m u.a.a.a.a.                          ",
"                      & & & & & & & & & ; D s.a.a.y.6 & & & @ R R R R R R R R R R R o.> & - M s.a.a.a.                          ",
"                          & & & & & & & 1 0.s.s.y.e * & & # Q R R R R R R R R R R R R +.= &     a.a.                            ",
"                              & & & & & - e D S 6 - & & , o.R R R R R R R R R R R R R R +                                       ",
"                                    & & & & - - & & & - O R R R R R R R R R R R R R R R R                                       ",
"                                              & & & & $ T R R R R R R R R R R R R R R R R R                                     ",
"                                                        E R R R R R R R R R R R R R R W ~ v.                                    ",
"                                                        m.:.E W R R R R R R R W W E ^ 1.G.                                      ",
"                                                          /.F.v.,.:.^ ^ ^ ^ :.<.b.F.W.                                          ",
"                                                              '.(.(././._._.`.].].                                              ",
"                                                              ~.~.~.^.^.'.].].].].                                              ",
"                                                              ~.~.~.~.~.`.].].].].].                                            ",
"                                                              ~.~.~.~.~.  ].].].].].                                            ",
"                                                            ~.~.~.~.      ].].].].].                                            ",
"                                                            ~.~.~.          ].].].].                                            ",
"                                                                            ].].].                                              ",
"                                                                              ].].                                              ",
"                                                                                                                                "
};
