/* XPM */
static char *a6zw7_8b6ew[] = {
/* columns rows colors chars-per-pixel */
"64 64 171 2 ",
"   c None",
".  c #6B7D77",
"X  c #707F7A",
"o  c #B5615F",
"O  c #95716E",
"+  c #9C7B7B",
"@  c #A76865",
"#  c #B9716F",
"$  c #C95B59",
"%  c #C45C5A",
"&  c #D95A59",
"*  c #FF4747",
"=  c #FF4947",
"-  c #FF4B4B",
";  c #F74949",
":  c #FE534B",
">  c #E75251",
",  c #FF5252",
"<  c #FE5E54",
"1  c #FF5A5B",
"2  c #FE6C4F",
"3  c #F96659",
"4  c #FF725E",
"5  c #FE7C56",
"6  c #C46767",
"7  c #C8746A",
"8  c #FF6666",
"9  c #FF6B65",
"0  c #FF6C68",
"q  c #E7706A",
"w  c #FF7365",
"e  c #FE7C64",
"r  c #FF746B",
"t  c #57837E",
"y  c #5A837D",
"u  c #B0967C",
"i  c #FE8A5A",
"p  c #FE9C5A",
"a  c #FEAB5E",
"s  c #FE8164",
"d  c #FE8964",
"f  c #FE866A",
"g  c #FF8F6D",
"h  c #FE9463",
"j  c #FE9862",
"k  c #FF8B74",
"l  c #EF9A76",
"z  c #FF9875",
"x  c #F69D77",
"c  c #FEA361",
"v  c #FEAD61",
"b  c #FEA66B",
"n  c #FEB560",
"m  c #FEB861",
"M  c #FEB76B",
"N  c #FFA777",
"B  c #FFA179",
"V  c #FEAA7C",
"C  c #FEB179",
"Z  c #FEB97E",
"A  c #FEC174",
"S  c #FEC47B",
"D  c #5E8E8C",
"F  c #598782",
"G  c #5F908F",
"H  c #5F9694",
"J  c #658F8B",
"K  c #618C87",
"L  c #708C8B",
"P  c #60908D",
"I  c #639696",
"U  c #6B9493",
"Y  c #669999",
"T  c #6B9C9B",
"R  c #739492",
"E  c #719D98",
"W  c #7BA098",
"Q  c #7EA197",
"!  c #73A1A1",
"~  c #78A5A5",
"^  c #7CA8A8",
"/  c #01CCFF",
"(  c #13D1FF",
")  c #1ED3FF",
"_  c #23D4FF",
"`  c #2FD6FF",
"'  c #30D7FF",
"]  c #43D9FD",
"[  c #49D8FA",
"{  c #5DDEFE",
"}  c #67DFFB",
"|  c #6BE1FD",
" . c #838989",
".. c #BC9C85",
"X. c #88A094",
"o. c #96AA96",
"O. c #B3AA8A",
"+. c #BCB18A",
"@. c #A3A792",
"#. c #BBB591",
"$. c #83ACAC",
"%. c #8DAEAE",
"&. c #90B1AF",
"*. c #8AB1B1",
"=. c #9CBDBD",
"-. c #91B6B7",
";. c #A8B8A6",
":. c #C4B48D",
">. c #C7BA93",
",. c #D2BE92",
"<. c #FFAD84",
"1. c #FFBD83",
"2. c #FFB088",
"3. c #FFBD8D",
"4. c #BAC7B9",
"5. c #DEC392",
"6. c #FEC282",
"7. c #FEC984",
"8. c #FEC28B",
"9. c #FECD8F",
"0. c #EAC791",
"q. c #FECE90",
"w. c #FED194",
"e. c #FFD39B",
"r. c #D8C8A4",
"t. c #DBD0B9",
"y. c #FFD6A1",
"u. c #FFD9A6",
"i. c #F6D8AB",
"p. c #FEDCAE",
"a. c #FFDDB0",
"s. c #F4DDB9",
"d. c #FEE2BC",
"f. c #F4E2BE",
"g. c #9FC0C1",
"h. c #A4C2C2",
"j. c #AEC9C9",
"k. c #B5CECE",
"l. c #B8CFCE",
"z. c #BCD3D3",
"x. c #80DFEF",
"c. c #94E0EA",
"v. c #81E2F7",
"b. c #94E5F5",
"n. c #9BEAFC",
"m. c #98E8FA",
"M. c #B8E7E6",
"N. c #A5E8F3",
"B. c #B6EEF9",
"V. c #C2D6D7",
"C. c #CCDBDA",
"Z. c #E7DAC1",
"A. c #CCE8DE",
"S. c #D8E8DC",
"D. c #EDE5CB",
"F. c #E6E0C3",
"G. c #F8E5C7",
"H. c #ECE7D1",
"J. c #F2E9D2",
"K. c #CCEAE5",
"L. c #D5E3E3",
"P. c #DAEAE4",
"I. c #D9F0ED",
"U. c #CCEFF2",
"Y. c #E6E6E6",
"T. c #E8E7E7",
"R. c #E2EBEB",
"E. c #ECECEC",
"W. c #EAF1F1",
"Q. c #FFFFFF",
"!. c #F4F8F8",
/* pixels */
"                                                                                                                                ",
"                                                            *                                                                   ",
"                                                        * * * *                                                                 ",
"                                                      * * * * *                                                                 ",
"                                                      * * * * *                                                                 ",
"                                    * * * * * *     * * * * *                                                                   ",
"                                    * * * * * * * * * * - - , 8 8 8 8 8 8 8 8 8 8 8                                             ",
"                                      * * * * * * * - 1 8 8 8 8 8 8 8 8 8 8 8 8 8 8 8 8 8 8 8                                   ",
"                                        * * * * - 1 8 8 8 8 8 8 8 8 8 8 8 8 8 8 8 8 8 8 8 8 8 8 8                               ",
"                                            * - 1 8 8 8 8 8 8 8 8 8 8 8 8 8 8 8 8 8 8 8 8 8 8 8 8 8 8                           ",
"                                          * - 1 8 8 8 8 8 8 8 8 8 8 8 8 8 8 8 8 8 8 8 8 8 8 8 8 8 8 8 8                         ",
"                                      * * * , 8 8 8 8 8 8 8 8 8 8 8 8 8 8 8 8 8 8 8 8 8 8 8 8 8 8 8 8 8 8                       ",
"                                    * * * - 1 8 8 8 8 8 8 8 8 8 8 8 8 8 8 8 8 8 8 8 8 8 8 8 8 8 8 8 8 8 8 8                     ",
"                                  * * * * , 8 8 8 8 8 8 8 8 8 8 8 8 8 8 8 8 8 8 8 8 8 8 8 8 8 8 8 8 8 8 8 8                     ",
"                                * * * * * 1 8 8 8 8 8 8 8 8 8 8 8 8 8 8 8 8 8 8 8 8 8 8 8 8 8 8 8 8 8 8 8 8 8                   ",
"                                * * * * - 8 8 8 8 8 8 8 8 8 8 8 8 8 8 8 8 8 8 8 8 8 8 8 8 8 8 8 8 8 8 8 8 8 8                   ",
"                              * * * * * - 8 8 8 8 8 8 8 8 8 8 8 8 8 8 8 8 8 8 8 8 8 8 8 8 8 8 8 8 8 8 8 8 8 8                   ",
"                              * * * * * , 8 8 8 8 8 8 8 8 8 8 8 8 8 8 8 8 8 8 8 8 8 8 8 8 8 8 8 8 8 8 8 8 8 8                   ",
"                            * * * * * * , 8 8 8 8 8 8 8 8 8 8 8 8 8 8 8 8 8 8 8 8 8 8 8 8 8 8 8 8 8 8 8 8 8 8                   ",
"                            * * * * * * , 8 8 8 8 8 8 8 8 8 8 8 8 8 8 8 8 8 8 8 8 8 8 8 8 8 8 8 8 8 8 8 8 8 8                   ",
"                            * * * * * * , 8 8 8 8 8 8 8 8 8 8 8 8 8 8 8 8 8 8 8 8 8 8 8 8 8 8 8 8 8 8 8 8 8 8 8                 ",
"                            * * * * * * , 8 8 8 8 8 8 8 8 8 8 8 8 8 8 8 8 8 8 8 8 8 8 8 8 8 8 8 8 8 8 8 8 8 8 8                 ",
"                            * * * * * * , 8 8 8 8 8 8 8 8 8 8 8 8 8 8 8 8 8 8 8 8 8 8 w 9 8 8 8 8 8 8 8 8 8 8 8                 ",
"                            * * * * * * - 8 8 8 8 8 8 8 8 8 8 8 8 8 8 8 8 8 8 8 8 8 8 d w 8 8 8 8 8 8 8 8 8 8                   ",
"                            * * * * * * - 1 8 8 8 8 8 8 8 8 8 8 8 8 8 8 8 8 8 8 8 8 9 c e 8 8 8 8 8 8 8 8 8 8                   ",
"                            * * * * * * * 1 8 8 8 8 8 8 8 8 8 8 8 8 8 8 8 8 8 8 8 8 s n h 8 8 8 8 8 8 8 8 8 8                   ",
"                            * * * * * * * - 8 8 8 8 8 8 8 8 8 8 8 8 8 8 9 0 w e d j v m n h e 0 9 9 9 9 8 8                     ",
"                            * * * * * * : 5 i 9 8 8 w s e e s f g z B N C Z 6.7.7.7.7.7.7.7.6.1.C b c j 0                       ",
"                            * * * * * : p n v 0 8 8 d n n n A 9.d.P.K.f.w.q.q.q.q.q.q.q.q.e.G.K.S.p.7.M w                       ",
"                            * * * * = i m n v w 8 8 s n n S q.G.n._ ( { Z.q.q.q.q.q.q.q.q.D.{ ( ) m.p.1.                        ",
"                            * * * * : a n n v w 8 8 e n M 9.y.U.( / / / x.e.9.q.q.q.q.9.y.b./ / / _ S.8.                        ",
"                          * * * * * : a n n v 0 8 8 w v A 9.a.m./ / / / ] i.9.q.q.q.q.9.p.} / / / / M.3.                        ",
"                          * * * * * - p m n c 9 8 8 0 v S 9.p.n./ / / / [ i.9.q.q.q.q.9.u.v./ / / ( A.<.9                       ",
"                          * * * * * * 2 a m j 8 8 8 9 c S q.e.I._ / / / c.e.9.q.q.q.q.q.w.S.' / / | s.k 8                       ",
"                          * * * * * * = 2 p s 8 8 8 9 c S q.9.d.B.] ` v.s.9.q.q.q.q.q.q.9.y.S.b.N.D.2.0 8                       ",
"                        * * * * * * * * * : 8 8 8 8 9 c A q.q.q.a.J.H.p.q.q.q.q.q.q.q.q.q.9.w.u.y.<.r 8 8                       ",
"                        * * * * * * * * * , 8 8 8 8 8 5 c 6.9.q.9.q.w.9.q.q.q.q.q.q.w.w.q.9.8.V f 0 8 8 8                       ",
"                      * * * * * * * * * * 1 8 8 8 8 8 - : 7 u O.+.+.+.+.+.+.+.:.#.:.l g f 4 < - , 8 8 8 8 8                     ",
"                    * * * * * * * * * * - 8 8 8 8 8 8 - o y t F G I I P D D &.C.! I O ; * * * * , 8 8 8 8 8                     ",
"                  * * * * * * * * * * * - 8 8 8 8 8 1 > . t t t F I Y Y Y Y $.h.T Y J $ * * * * - 8 8 8 8 8                     ",
"                  * * * * * * * * * * * , 8 8 8 8 8 , % t t t t t I Y Y Y Y Y Y Y Y H @ * * * * * 1 8 8 8                       ",
"                  * * * * * * * * * * * - 1 8 8 8 1 - & X K J U U I Y Y Y Y Y h.k.T L $ * * * * *                               ",
"                  * * * * * * * * * * * * - - , , - * * q t.Z.Z.;.Y Y Y Y Y Y =.h.T 7 * * * * * *                               ",
"                  * * * * * * * * * * * * * * * * * * * < 8.w.q.>.Y Y Y Y Y Y Y Y X.3 * * * * * *                               ",
"                  * * * * * * * * * * * * * * * * * * * - V q.q.0.Q Y Y Y Y Y Y Y @.3 * * * * * *                               ",
"                    * * * * * * * * * * * * * * * * * * * f q.q.9.r.l.l.l.l.z.z.V.t.s * * * * * *                               ",
"                      * * * * * * * * * * * * * * * * * * 4 9.q.q.w.4.g.h.h.=.=.-.;.x - * * * * *                               ",
"                        * * * * * * * * * * * * * * * * * < 8.q.q.q.#.I I I I I I T ..: * * * *                                 ",
"                          * * * * * * * * * * * * * * * - # ,.q.q.q.5.E Y Y Y Y Y Y R & * * *                                   ",
"                              * * * * * * * * * * * * * 6 U o.q.q.q.0.W Y Y Y Y Y Y Y  .> *                                     ",
"                                    * * * * * * * * * & R Y T ,.q.q.5.E Y Y Y Y Y Y Y Y  .                                      ",
"                                            * * * * - + Y Y Y Q >.,.o.Y Y Y Y Y Y Y Y Y Y                                       ",
"                                                      %.T Y Y Y T T Y Y Y Y Y Y Y Y Y Y T                                       ",
"                                                        j.~ Y I Y Y Y Y Y Y Y Y Y I Y ^ j.                                      ",
"                                                          R.z.=.$.~ ! E T ! ! ^ *.h.V.R.                                        ",
"                                                          Q.Q.Q.!.W.R.L.L.L.P.R.E.E.E.T.                                        ",
"                                                          Q.Q.Q.Q.Q.Q.        T.Y.Y.Y.Y.                                        ",
"                                                        Q.Q.Q.Q.Q.Q.          Y.Y.Y.Y.Y.                                        ",
"                                                        Q.Q.Q.Q.Q.            Y.Y.Y.Y.Y.                                        ",
"                                                      Q.Q.Q.Q.Q.              Y.Y.Y.Y.Y.                                        ",
"                                                      Q.Q.Q.                    Y.Y.Y.                                          ",
"                                                                                Y.Y.Y.                                          ",
"                                                                                  Y.                                            ",
"                                                                                                                                "
};
