/* XPM */
static char *azayv_7pdj4[] = {
/* columns rows colors chars-per-pixel */
"64 64 118 2 ",
"   c #4A250F",
".  c #50280F",
"X  c #452610",
"o  c #4A2711",
"O  c #452813",
"+  c #4B2A12",
"@  c #532C12",
"#  c #5B2E12",
"$  c #533116",
"%  c #5C3114",
"&  c #563419",
"*  c #5A361A",
"=  c #5F3A1A",
"-  c #612F12",
";  c #643314",
":  c #683716",
">  c #643917",
",  c #6C3917",
"<  c #643B1B",
"1  c #6B3E1B",
"2  c #703A17",
"3  c #743D19",
"4  c #66401D",
"5  c #6C421F",
"6  c #75421C",
"7  c #7B441C",
"8  c #74481E",
"9  c #7C491F",
"0  c #6F4420",
"q  c #724621",
"w  c #764A22",
"e  c #7B4D24",
"r  c #765024",
"t  c #7E5226",
"y  c #83461D",
"u  c #83491E",
"i  c #814E24",
"p  c #894F21",
"a  c #835326",
"s  c #8B5425",
"d  c #8B5825",
"f  c #845628",
"g  c #8A5728",
"h  c #86592A",
"j  c #8C5C2B",
"k  c #925524",
"l  c #955926",
"z  c #995A27",
"x  c #935D2A",
"c  c #9A5E2A",
"v  c #8C612E",
"b  c #94622D",
"n  c #9A642D",
"m  c #9C682E",
"M  c #936631",
"N  c #9A6730",
"B  c #956A33",
"V  c #9C6B32",
"C  c #9D7037",
"Z  c #A4662D",
"A  c #A8672E",
"S  c #A4692F",
"D  c #A6702F",
"F  c #A56D31",
"G  c #AD6C31",
"H  c #B06E32",
"J  c #A57235",
"K  c #AC7334",
"L  c #AF7A37",
"P  c #A47538",
"I  c #AA7738",
"U  c #AE7B3A",
"Y  c #B47435",
"T  c #B87736",
"R  c #B67937",
"E  c #B87937",
"W  c #B57C39",
"Q  c #BA7D39",
"!  c #B6813D",
"~  c #BE823C",
"^  c #BE883F",
"/  c #C0843D",
"(  c #C1863E",
")  c #C2883F",
"_  c #C4893F",
"`  c #B58541",
"'  c #BD8740",
"]  c #BC8941",
"[  c #C38A40",
"{  c #C58B41",
"}  c #C38C41",
"|  c #C48C42",
" . c #C58E42",
".. c #C68F43",
"X. c #C88F43",
"o. c #C19042",
"O. c #C79043",
"+. c #C79144",
"@. c #C59344",
"#. c #C89043",
"$. c #C89144",
"%. c #CA9345",
"&. c #CA9546",
"*. c #CC9647",
"=. c #CF9947",
"-. c #C79548",
";. c #CB9748",
":. c #CD9748",
">. c #CD9848",
",. c #CF9C4A",
"<. c #D09B4B",
"1. c #D09D4B",
"2. c #D19D4C",
"3. c #D3A04E",
"4. c #D3A14E",
"5. c #D6A551",
"6. c #D8A752",
"7. c #D8A852",
/* pixels */
"~ $.Q | | ~ Y Y Y ~ $.x v 2.{ >.*.#.Q Y | | Y G E f f Y G ~ | Q Y [ [ Y Q | | g > @ @ @ % # % > > 1 1 9 w ! Q ( #.( E | #.( Y | ",
"| { Q #.~ Y Y E Y Q X.g v <.| ,.*.{ Y ( #.#.{ Y Y a h E G ~ | ~ Y [ $.~ Y ~ | g t m n I K W o.+.+.| Y ~ g ~ ( E | ) Y { $.~ Y { ",
"&.~ [ ) Y H Q #.~ Q | g v :.:.1.&.Q ~ #.#.#.#.~ Y t j ~ G E | [ Y ~ $.+.R Y ) g m _ Q $.( $.4.4.2.&.Y ~ h ~ | E ~ | Y ~ | ~ Y | ",
"| ~ | E G E | $.~ Q _ s v $.2.,.[ Q | #.X.X.#.| E e j | Y Y | | E Y [ $.} Y E f m Q ( | Q :.2.>.,.&.E ~ a ^ #.Q E | E H ~ Q Y | ",
"~ | ( Y Y { #.$.Q ~ ( s j :.4.*.~ | #.| [ { | #.Q e j | Q G [ +.~ Y Y ~ | ~ G e m Q | ~ Q <.$.( &.&.E ~ t ^ $.~ Y { Q G Y E Y | ",
"( $.E Y ( | | | Q ~ ~ s j <.4.{ | &.| Q Y E { $.( e j O.( G ~ $.| E Y Y Y E G w x ~ ( Y ( >.( ~ | &.Q ~ t ~ $.~ Y { ( H Y Y Y | ",
"$.( Y ~ | ~ ~ | E ~ Q g j 4.>.{ >.$.Q H G H ~ $.} e g | | Y Y +.&.| ( Q Y G G e c ( E Y | *.~ ~ [ &.Q ~ e ! &.( Y | { E G G Y #.",
"$.E ~ #.( H Y | E ~ Q x M 5.$.:.>.( H G G G E $.+.t g Q O.( Y ) &.&.$.O.( Y A w n ( Y Y $.X.~ ~ ( &.~ ~ e W &.( E | | ( Y G Y $.",
"( E O.| Y G Y { E ~ E x B 4.$.1.{ Y E Q E G Y | +.e x Y [ +.~ R $.-.&.$.+.( G q F Q H Y &.[ { { ~ $.~ Q e Y $.( E | #.| ~ H Y &.",
"E { $.Q H G Y | E ~ E b B 1.>.:.~ { #.#.| E H { &.e b E Y | +.~ Q | $.$.+.| ~ w J E E ( $.( $.&.~ | ( Q t W | ) E | #.| ) Y Q &.",
"( &.( Y Y Y Y | E ~ E b B <.2.| $.*.| | #.[ Y ) -.t N [ H Q &.$.~ Y R Q [ +.) e K E | $.| ~ $.>.~ ( ( W t W ) [ E | O.| | ( { | ",
"&.| Y Q { | E | E ~ Q b B <.>.| ,.| Y Y ( | E ( -.e N O.Q Y } -.&.( E Y Y [ [ e F E | { ~ ( >.2.( ~ [ W t ~ ( [ E | { ~ | | #.( ",
"$.Q ~ $.$.| Q | E ~ Q m B 1.&.&.,.~ G A Y | ~ ~ +.w m | | R R $.-.&.&.| E Y ~ w F Q ) E ~ >.4.4.) Q { E f ] ( { E | ~ Y { #.| Q ",
"~ ) &.$.$.| E | E ~ ~ N V 1.$.>.,.~ G A F ( [ ( +.w x ( +.| R ~ &.;.-.&.+.E F q Z ~ E Q :.2.4.4.| Q { E f } ( | Y { ~ Y ) #.( Q ",
"{ &.$.| | { Q | E ~ ~ N C 1.$.>.1.~ H G S Q | [ +.w x Y | $.| E ~ &.>.-.&.| Y q Z ~ Y | &.$.>.2.$.Q { E f +.( | Y ( ( Y ( | E ( ",
">.| Q E ( ) Q | E Q ( V P 4.>.$.1.( Y G S R | { | q m Y ~ $.&.| E ~ $.;.&.+.~ w S Q Q | ~ ~ $.1.&.E { E h +.( | E ( ) Y ( ) Y | ",
"[ Q E Y E ( Q | E Q ( V j ~ &.| >.| Y G A Y | ( L 5 J E Y | -.;.| E Q } &.$.~ w F Q ( ~ Q ~ { ,.>.Q ) W g -.) { E ~ | Y ( ~ E &.",
"( &.&.Q E ( Q | E Q ( V 1 u l Z K R Y H A A Z z u 1 I [ Y Q &.>.>.| Q R ~ | ~ q F Q ( Y Q ~ [ >.,.Q ( Q j ;.{ ) Y R X.~ { Q Q >.",
">.>.*.{ E ~ Q { E E { V % ; 2 7 y u s l s u 7 3 : 1 I O.~ Y [ >.>.>.| Q Y R W 0 F Q Q ~ -.| ( >.2.~ ~ ~ j ,.+.( b F $.| | E ( 1.",
"&.$.*.| E ~ ~ ) E E | J $ X o @ % ; ; ; ; % #   o 5 I +.| Q R +.>.>.>.| E Y Z 0 S Q Q &.2.4.| $.2.~ Q ~ b 2.&.( e n #.#.| E | 2.",
"g a Y | Q ~ ~ ( E E #.P 5 4 = & $ $ $ & = < 5 w a q J +.+.+.Q Q &.>.>.;.[ Y Z 0 n E ~ ~ Z W >.| ,.( E ~ j ] ~ Y > s | #.{ E $.4.",
": ; a ( Q ~ ( ~ E E $.P x ( Q Y Y W K Y ~ ~ Y E W w n ( $.&.$.~ ~ ;.,.>.&.Q Z 0 b E ( c , 7 ~ $.>.[ Y ~ t s s u @ 7 Q #.( E &.>.",
"@ @ 6 ~ Q Q ) Q Q E *.P b _ ( ~ Q { Y ( | ~ F Y W e F Y | ;.>.$.~ [ >.>.>.[ F 0 x E Q 9 @ # x $.$.{ Y ( w : : : o : c F Z l n n ",
"o o w ~ ~ Q { E Q Q >.P g ) ( ~ Q ) Y | [ Y A Y W e W E ~ ;.>.>.$.~ } >.>.$.F 5 g E W < o o 6 ~ | | Y ( w o o o o @ 9 9 7 6 , 3 ",
"& & b Q ) Q { E ~ Q >.P f _ ~ ~ ~ ( E | ~ A A Y W e ! | E } ,.,.>.+.~ +.>.-.K 5 g E Y > & $ % W [ | Y ( t < 0 5 q 8 g g d g k d ",
"< w W ~ { ~ [ E Q ~ 1.J a | ~ ~ ~ Q ~ O.Q A A K W e ! &.| Q +.,.,.>.| ~ -.>.U 0 g E R 5 < < & F ) | Y ~ a F ( E ( | #.$.1.| ( ( ",
"q F ( ( ( ( ( Q Q ) 1.J f | ( Q ( E ( | E A A K W e W &.;.| ~ &.,.,.;.~ [ >.W 0 g E ~ g q 0 * V { | Y ~ f K ( Q ( | $.$.,.{ ~ ( ",
"N [ ~ #.~ { Q ~ E | <.F h | ) Q ) Y ) | Y A A G W t F +.,.>.[ ~ >.,.,.$.~ $.W 0 g E ( K e w < F { | Y ( f F ( Q ( | $.$.,.[ ~ ( ",
"+.( | $.~ | E ( E $.>.F g _ { E ) Y { | Y F A G W f Y ~ >.2.>.( ( ,.2.,.( ~ U q a Q ~ | F i e ~ | { Y ( g F ( Q ) | $.$.>.( Q ~ ",
"( [ &.[ ( { Q ( E &.>.J f ) { Q ) Y | | Y G A F W g ] ~ [ ,.2.>.~ | 2.2.$.E K q a Q ~ | >.] ' 2.| { Y ( f F ( Q [ { &.$.>.~ ~ ~ ",
"{ &.&.~ | ~ ( Q F &.*.J a { ( ( ( Y | { Y G F F W j +.&.( | 2.,.&.~ +.>.+.Y n q i ~ Q { >.6.7.5.X.| E ( a F ( ~ { [ &.$.>.Q ~ ~ ",
">.>.| ( $.Q | K b >.&.I a | ~ | ~ E #.( G G F F W f F K F Z K K F c Z Z l l g q e Q ~ | | 5.6.5.$.| Q ( a F ( ~ | { >.$.>.Q ~ Q ",
">.&.~ $.{ ( | c f >.&.L h $.~ #.E Q #.~ G G G F W f i n k u u 7 3 7 9 3 3 7 6 q e E ( [ | 2.5.5.$.| ~ ~ a F Q ( | { >.$.&.E ~ Q ",
">.( { &.~ | ( 9 a >.$.U h | [ #.Y ~ #.Q G G G G W w # D ~ K l u 1 ; @   o X @ q e Y { ( $.$.5.5.X.| ( Q a K E ( { | $.$.$.E ~ E ",
"[ ( *.| ( $.Y ; h 1.$.! h ) $.| Y ) X.E G H G G Q w + n ~ ^ E Y Q W J b e 5 q a a E | ( &.X.4.4.| { ( Q f K E ( [ $.( | +.E ( E ",
"( *.*.( | | c . h 1.$.` h ( &.( Y | | Y G Q E G E e * n K ~ ^ E K ~ O.#._ E Y Y j R ( | X.$.$.$.| [ ) Q f K E ( ( &.~ | | E ( E ",
">.>.| ) &.Q 6   v 1.$.` f [ >.Q Q #.{ Y H ) ~ G E t < K F K ~ [ Q Y E ( | | ~ Y g Q ~ $.| :.| { | ) [ Q g L Q ~ ~ &.| &.| E ) Y ",
",.&.( $.) c % X v 1.$.] a $.&.E ( #.( H Y | ) G E a q W ! F Y ~ } ( Y Y E ( | ~ a Q E $.| *.| { $.( [ Q j L ( Q ~ $.>.>.{ ~ [ Y ",
"K A A F z 6 @ O B 2.*.] f >.$.E | #.~ G ~ #.| Y Y f w K ~ ~ Y K ~ | | ~ Y Y E Y w Q E | | $.| | :.( [ Q g W ) Q ( { ,.,.{ { [ Y ",
"s y u p 7 , + + h ~ F n h >.| Q $.| E Y | #.| Y Y a w Z K ~ ~ R H Y ~ | | ~ Y Z q Q Q ) $.$.X.&.>.( ) Q h L { Q ) ~ >.1.{ | ) Y ",
", ; : : # # $ $ 1 u 3 6 h >.( ( $.| Y Y | #.#.E Y a w A A F W ) ~ Y G Y ~ | | K q Q Q ( :.$.$.>.>.~ ( Q h L | E { ~ :.,.[ { ( Q ",
"@ @ @ @ $ & & & + o X + f >.~ O.$.{ Y E #.#.#.~ Y f w A A F G Y ( | ~ Y H Y ) I w Q ~ ( >.$.2.2.:.~ ( Q h K | Q [ ~ $.,.( { ( ~ ",
"5 0 0 q q 8 w t w r t q h $.( &.$.~ H ~ #.#.#.( H f w A F ~ ~ E Y Q | | ( Y Y n w R ( ~ ,.&.4.4.&.~ ( Q h K X.Q ( ( [ >.~ ) ( ~ ",
"E ) E ( ~ Y _ #.*.=.1.n h { { >.#.Y H ) #.#.X.{ Y a e A K [ | | ~ Y E | | [ E l e E { ~ >.*.2.5.$.~ ( Q h F X.Q ~ | ~ &.Q ( ( ~ ",
"( $.Q | Q Q $.&.&.>.<.V g ( &.>.( H Y | #.| { { Y i e A K } | | O.[ Y E [ | | n t Q { ~ :.:.2.5.$.~ ( Q h F | ~ Q $.Q ~ Y ( ~ ~ ",
"| | Q | Y ) $.$.| &.<.V f [ >.&.E H ~ #.| ~ T _ E i e A Y } | | | O.[ Y Y [ $.m t ~ ( [ $.>.>.5.| { ( Q f F | ~ E $.~ Y Y ( Q ( ",
"$.( ~ [ E | $.) Q $.>.V f $.2.$.Y Q | #.{ Y G Q ~ a e A Y } | [ ~ | +.[ Y E | m a ( ~ $.X.1.&.4.| &.( E f F _ ( Y ) { Y H ~ Q ( ",
"$.~ | ~ ~ $.$.~ Y { =.N h 1.2.[ Q | #.| E G G Y ( a e A Y | | ~ H Q | +.( H E b e ( ~ $.X.2.$.:.{ *.( E t F ( { H Y | Q H ~ E ( ",
"| ~ #.Q { $.| E Y ) *.m j 4.>.~ | $.#.( H G G H ~ f i A K | | ~ G H ~ | +.~ H s i Q ~ | [ $.[ ~ Q ) Y Y t K ~ | ~ Y ( ) Y ( Y ( ",
") ( { Q #.#.) Y Y ( *.b j 4.$.[ *.$.| Y Y Y G G Q h i A G [ | E G Y Y ( | | Q s 6 k z l l k l s s s y p q W Q | | Q Q | ) ) Y ) ",
"~ | ~ ( #.{ E Y Y ~ &.b v 4.| $.*.$.( Y ( ( H G E h a G G ) | E G ( Q Y [ | | g < ; , : : - ; : ; # ; ; 5 W Q { | ~ E | | ( Y { ",
"( | Q | { E Y Y Y Q $.x v 2.| >.*.| E Q #.#.~ H Y f f Y G ~ | ~ Y } +.E Y [ | g 1 < 1 8 w e j b b m l A a ~ ~ ~ #.( E | #.( Y { ",
"$.( ( | Y H Y ( Q Q X.g v >.$.,.*.( Y | #.#.X.E Y t g Q G Q | ( Y ( &.} Y E | g b ) E #._ X.4.4.4.*.T ( g ~ ) Y ) { Y ) $.~ Y { ",
"$.Q | ~ H Y ( $.~ Q { g v &.>.1.$.E ) #.#.#.#.) Y e j ) G Y | [ Y R +.$.~ G ~ g m ( ~ | ~ &.4.1.,.&.E ~ f ~ | Q Q | E Y ) Q Y | ",
") ( | Y H ~ $.$.~ ~ ( s j &.2.>.~ ( #.X.| | X.| Q e j | Y Y | | Q Y ~ +.+.R Y a m Q { ( Q >.>.$.>.&.E ~ t ] #.~ E | E G Q E Y | ",
"~ O.~ Y Q | | #.Q ~ ( s j >.4.$.( $.X.) Q ( | $.~ e v O.~ G ( $.[ Y Y E ~ ~ G w n Q | E ~ ,.{ ~ $.&.E ~ t ~ $.~ Y { ~ H Y Y Y | ",
"{ | Y E | { ) | E ~ Q s j 2.2.[ &.&.) Y G Y ) $.) e j | [ Y Q $.+.~ R Y G G G e x ( ~ Y [ >.( ~ | &.Q ~ e ! &.( Y { ( Y G H Y #.",
"&.~ E | { E E | E ~ Q g b 5.&.$.>.| Y G G G Q $.| e g ( O.~ Y | &.$.O.[ E G G e n ( Y Y | $.~ ~ ( &.Q ~ e W &.( Y | | Q H G Y $.",
"{ E [ #.Q G Y { E ( E x B 5.X.>.&.E H Y H G Y $.+.e g Y | | E ~ &.&.&.+.| E A q Z ( H Y $.| ( ( ~ $.~ ~ e W $.( E | | ) E G Y $.",
"Q ~ $.( Y G Y | E ~ E x B 2.&.>.~ Q ( | ( Y H | +.e b Y Q +.[ R [ &.&.&.+.| Y q F Q Y Q &.( | $.~ | ~ Q t W | ) E | #.| ( Y E &.",
"Q $.| Y H G Y | E ~ E b B <.<.$.) &.$.#.#.~ H { -.t N ~ G [ &.[ E ~ [ } +.O.~ w K E ( | $.~ $.>.~ [ ( W t W [ ) E | #.#.{ Q ( $.",
"| $.Q Y Q ~ E | E ~ E b B <.<.{ >.&.( ( | | Y ( -.e N | Y Y +.&.| E Y Y Q | ) e K E | #.( ~ *.2.~ ( ) W t ~ ( [ E | | { | ) | { ",
"&.( E [ $.| Q | E ~ Q m B <.:.$.,.) G F Q X.Q ( -.e N $.( Y ~ &.-.+.[ ~ Y Q ^ e F E | ~ Q | 2.2.( ~ { W t ~ ( { E | ( Y | | #.~ ",
"{ Q | &.$.| Q | E ~ Q N V 2.$.:.,.~ G A G { ( ( +.w b | | ~ Y | -.-.-.&.( Y W w Z Q ~ Y | 1.4.4.{ Q { E f [ ( { Y { ~ Y { #.| Q "
};
